<svg width="235px" height="34px" viewBox="0 0 235 34" version="1.1" xmlns="http://www.w3.org/2000/svg" xmlns:xlink="http://www.w3.org/1999/xlink"><defs><linearGradient x1="50%" y1="148.884072%" x2="50%" y2="-7.59793639%" id="linearGradient-1"><stop stop-color="#316DA0" offset="0%"></stop><stop stop-color="#2B71E0" offset="100%"></stop></linearGradient><path d="M0.79,33 L0.79,1.5 L9.52,1.5 L9.52,13.29 L20.725,13.29 L20.725,1.5 L29.455,1.5 L29.455,33 L20.725,33 L20.725,21.03 L9.52,21.03 L9.52,33 L0.79,33 Z M30.815,33 L44.225,1.275 L52.64,1.275 L66.05,33 L56.69,33 L54.395,27.375 L42.245,27.375 L39.995,33 L30.815,33 Z M44.81,20.58 L51.875,20.58 L48.365,11.625 L44.81,20.58 Z M67.4099999,33 L67.4099999,1.5 L82.3049999,1.5 C87.1199999,1.5 90.4499999,2.76 92.5649999,4.92 C94.4099999,6.72 95.3549999,9.15 95.3549999,12.255 L95.3549999,12.345 C95.3549999,17.16 92.7899999,20.355 88.8749999,22.02 L96.3899999,33 L86.3099999,33 L79.9649999,23.46 L76.1399999,23.46 L76.1399999,33 L67.4099999,33 Z M76.1399999,16.62 L81.8999999,16.62 C84.8699999,16.62 86.5799999,15.18 86.5799999,12.885 L86.5799999,12.795 C86.5799999,10.32 84.7799999,9.06 81.8549999,9.06 L76.1399999,9.06 L76.1399999,16.62 Z M98.0649999,33 L98.0649999,1.5 L112.96,1.5 C117.775,1.5 121.105,2.76 123.22,4.92 C125.065,6.72 126.01,9.15 126.01,12.255 L126.01,12.345 C126.01,17.16 123.445,20.355 119.53,22.02 L127.045,33 L116.965,33 L110.62,23.46 L106.795,23.46 L106.795,33 L98.0649999,33 Z M106.795,16.62 L112.555,16.62 C115.525,16.62 117.235,15.18 117.235,12.885 L117.235,12.795 C117.235,10.32 115.435,9.06 112.51,9.06 L106.795,9.06 L106.795,16.62 Z M128.9,33 L128.9,1.5 L137.675,1.5 L137.675,33 L128.9,33 Z M154.11,33.54 C148.53,33.54 143.22,31.785 139.35,28.32 L144.21,22.515 C147.315,24.99 150.78,26.295 154.425,26.295 C156.765,26.295 158.025,25.485 158.025,24.135 L158.025,24.045 C158.025,22.74 156.99,22.02 152.715,21.03 C146.01,19.5 140.835,17.61 140.835,11.13 L140.835,11.04 C140.835,5.19 145.47,0.96 153.03,0.96 C158.385,0.96 162.57,2.4 165.99,5.145 L161.625,11.31 C158.745,9.285 155.595,8.205 152.805,8.205 C150.69,8.205 149.655,9.105 149.655,10.23 L149.655,10.32 C149.655,11.76 150.735,12.39 155.1,13.38 C162.345,14.955 166.845,17.295 166.845,23.19 L166.845,23.28 C166.845,29.715 161.76,33.54 154.11,33.54 Z M185.215,33.63 C175.495,33.63 168.295,26.385 168.295,17.34 L168.295,17.25 C168.295,8.205 175.585,0.87 185.305,0.87 C195.025,0.87 202.225,8.115 202.225,17.16 L202.225,17.25 C202.225,26.295 194.935,33.63 185.215,33.63 Z M185.305,25.755 C190.12,25.755 193.315,21.885 193.315,17.34 L193.315,17.25 C193.315,12.705 190.03,8.745 185.215,8.745 C180.445,8.745 177.25,12.615 177.25,17.16 L177.25,17.25 C177.25,21.795 180.535,25.755 185.305,25.755 Z M205.07,33 L205.07,1.5 L213.215,1.5 L226.175,18.15 L226.175,1.5 L234.815,1.5 L234.815,33 L227.165,33 L213.71,15.72 L213.71,33 L205.07,33 Z" id="path-2"></path></defs><g id="Page-1" stroke="none" stroke-width="1" fill="none" fill-rule="evenodd"><g id="Group" fill-rule="nonzero"><g id="HARRISON"><use fill="#4A4A4A" xlink:href="#path-2"></use><use fill="url(#linearGradient-1)" xlink:href="#path-2"></use></g></g></g></svg>